# xmcd CD database file
#
# Track frame offsets:
#	150
#	18748
#	36617
#	50671
#	71723
#	88935
#	103603
#	119697
#	140628
#	155379
#	165202
#	188394
#	200101
#	213203
#
# Disc length: 3156 seconds
#
# Revision: 0
# Processed by: cddbd v1.5.2PL0 Copyright (c) Steve Scherf et al.
# Submitted via: CDex 1.51
#
DISCID=cf0c520e
DTITLE=Mitch Walking Elk - Up From The Ashes
DYEAR=2012
DGENRE=Blues
TTITLE0=Up From The Ashes
TTITLE1=Don't Know Where I'm Standing
TTITLE2=Raw Blues
TTITLE3=The Sun's Going Down
TTITLE4=I Used To Drink Whiskey
TTITLE5=Here I Go
TTITLE6=Baby Done Me Wrong (But The Blues Won't)
TTITLE7=Oh My My My
TTITLE8=Big City Woman
TTITLE9=SureDon't Look Good In Orange
TTITLE10=God Blessed The Blues (This One We Did Live)
TTITLE11=If There Ever Was A Woman
TTITLE12=Love Can Endure
TTITLE13=I, We Will Survive
EXTD=YEAR: 2012
EXTT0=
EXTT1=
EXTT2=
EXTT3=
EXTT4=
EXTT5=
EXTT6=
EXTT7=
EXTT8=
EXTT9=
EXTT10=
EXTT11=
EXTT12=
EXTT13=
PLAYORDER=
